<?xml version="1.0" encoding="UTF-8"?>
<svg id="a" data-name="羽" xmlns="http://www.w3.org/2000/svg" viewBox="0 0 512 512">
  <defs>
    <style>
      .b {
        fill: #9fa0a0;
        stroke: #595757;
        stroke-linecap: round;
        stroke-linejoin: round;
        stroke-width: 5px;
      }

      .c {
        fill: #595757;
      }
    </style>
  </defs>
  <path class="b" d="M491.64,13.07s-35.2,55.86-86.84,125.86c-3.28,4.44-98.7,47.3-98.7,47.3,0,0,80.33-22.72,76.03-17.1-19.79,25.9-41.3,52.84-63.71,78.97-4.92,5.74-101.92,49.14-101.92,49.14,0,0,75.83-19.55,70.18-13.43-18.14,19.64-36.59,38.25-54.96,54.91-5.68,5.16-83.42,35.43-83.42,35.43,0,0,53.7-10.08,47.4-5.29-37.14,28.22-72.77,45.76-103.36,44.79-8.88-51.6.88-96.34,27.11-142.32,3.75-6.57,25.68,48.9,25.68,48.9,0,0-3.32-83.39,2.34-90.86,12.84-16.96,27.71-34.39,44.5-52.67,3.44-3.75,6.97-7.53,10.57-11.35,3.08-3.26,11.58,62.89,11.58,62.89,0,0,1.42-76.49,3.24-78.36,12.94-13.32,27.42-25.55,42.8-36.73,3.83-2.78,10.26,64.35,10.26,64.35,0,0,5.85-77.97,18.24-84.85C377.04,43.64,491.64,13.07,491.64,13.07Z"/>
  <path class="c" d="M60.94,492.84l-15.17-2.9C123.14,294.34,391.68,72.91,391.68,72.91c0,0-252.53,230.86-330.74,419.93Z"/>
</svg>